<svg xmlns="http://www.w3.org/2000/svg" viewBox="0 0 800 400" width="800" height="400">
  <defs>
    <linearGradient id="sky" x1="0%" y1="0%" x2="0%" y2="100%">
      <stop offset="0%" style="stop-color:#0a0a14"/>
      <stop offset="60%" style="stop-color:#12121c"/>
      <stop offset="100%" style="stop-color:#18182a"/>
    </linearGradient>
    <linearGradient id="city" x1="0%" y1="100%" x2="0%" y2="0%">
      <stop offset="0%" style="stop-color:#050508"/>
      <stop offset="100%" style="stop-color:#0c0c14"/>
    </linearGradient>
  </defs>
  <rect width="800" height="400" fill="url(#sky)"/>
  <rect x="0" y="200" width="800" height="200" fill="url(#city)"/>
  <!-- Simple skyline silhouette -->
  <path d="M0,400 L0,280 L40,280 L40,320 L80,320 L80,260 L120,260 L120,340 L160,340 L160,220 L220,220 L220,400 L280,400 L280,240 L340,240 L340,380 L400,380 L400,200 L460,200 L460,360 L520,360 L520,260 L580,260 L580,400 L640,400 L640,300 L700,300 L700,340 L760,340 L760,180 L800,180 L800,400 Z" fill="#08080c" opacity="0.9"/>
</svg>
